# xmcd
#
# Track frame offsets: 
#        193
#        23673
#        37765
#        54935
#        68378
#        86888
#        101293
#        119438
#        137668
#        150450
#        171568
#        191260
#        208545
#
# Disc length: 2809 seconds
#
# Revision: 8
# Processed by: cddbd v1.5.2PL0 Copyright (c) Steve Scherf et al.
# Submitted via: ExactAudioCopy v0.95a3
#
DISCID=9c0af70d
DTITLE=Piano has been Drinking, The - Piano Has Been Drinking, The
DYEAR=1990
DGENRE=Rock
TTITLE0=Wärm Bier and köhl Wiever
TTITLE1=Jogging Botz voll Bloot
TTITLE2=Weinachtskaat vun nem Flittche vum Eijelstein
TTITLE3=Ohne Wiever besser dran
TTITLE4=16 Memme en d'r Vringmachine
TTITLE5=En d'r Nohbarschaff
TTITLE6=Helau
TTITLE7=Rude Jolf
TTITLE8=Kei Minsch
TTITLE9=Maat Höösch
TTITLE10=Do kanns nix dofür (wenn do dräums)
TTITLE11=Schön dich ze sinn
TTITLE12=Dut Pad
EXTD=YEAR: 1990
EXTT0=
EXTT1=
EXTT2=
EXTT3=
EXTT4=
EXTT5=
EXTT6=
EXTT7=
EXTT8=
EXTT9=
EXTT10=
EXTT11=
EXTT12=
PLAYORDER=
